<?xml version="1.0" encoding="UTF-8" standalone="no"?>
<!-- Created with Inkscape (http://www.inkscape.org/) -->

<svg
   width="81.114845mm"
   height="38.913094mm"
   viewBox="0 0 81.114845 38.913094"
   version="1.1"
   id="svg5"
   inkscape:export-filename="logo5.png"
   inkscape:export-xdpi="96"
   inkscape:export-ydpi="96"
   sodipodi:docname="logo3.svg"
   xmlns:inkscape="http://www.inkscape.org/namespaces/inkscape"
   xmlns:sodipodi="http://sodipodi.sourceforge.net/DTD/sodipodi-0.dtd"
   xmlns="http://www.w3.org/2000/svg"
   xmlns:svg="http://www.w3.org/2000/svg">
  <sodipodi:namedview
     id="namedview7"
     pagecolor="#030303"
     bordercolor="#111111"
     borderopacity="0"
     inkscape:showpageshadow="0"
     inkscape:pageopacity="0"
     inkscape:pagecheckerboard="true"
     inkscape:deskcolor="#d1d1d1"
     inkscape:document-units="mm"
     showgrid="false" />
  <defs
     id="defs2" />
  <path
     style="fill:#0000ff;fill-opacity:0;stroke:#0000ff;stroke-width:1.77561;stroke-linecap:butt;stroke-linejoin:miter;stroke-dasharray:none;stroke-opacity:1"
     d="m 36.852609,25.937108 c 0,0 0.115128,4.561081 -0.768757,6.55346 -0.739439,1.666788 -1.620159,3.05346 -3.31984,3.713792 -6.245561,2.426424 -13.850626,2.413934 -20.101025,0 -1.648462,-0.636645 -2.8528494,-1.949014 -3.5716294,-3.563356 -0.341927,-0.767951 -0.363928,-2.521879 -0.363928,-2.521879"
     id="path375-6"
     sodipodi:nodetypes="cssssc"
     inkscape:label="path375-6" />
  <g
     inkscape:label="Слой 1"
     inkscape:groupmode="layer"
     id="layer1"
     style="display:inline"
     transform="translate(-46.111016,-61.593496)">
    <g
       aria-label="qooby.ru"
       id="text113"
       style="font-size:19.7556px;letter-spacing:-0.407458px;fill:#0000ff;stroke:#ffffff;stroke-width:0.266174">
      <path
         d="m 55.726406,90.378675 h -1.813502 v -5.189704 q -0.839227,0.723472 -1.668808,1.080385 -0.829581,0.347266 -1.79421,0.347266 -1.919611,0 -3.06752,-1.475882 -1.138262,-1.485529 -1.138262,-4.090027 0,-1.389065 0.395498,-2.450157 0.405144,-1.070738 1.061092,-1.79421 0.636655,-0.704179 1.495175,-1.090031 0.858519,-0.385851 1.813502,-0.385851 0.868166,0 1.53376,0.192926 0.67524,0.192925 1.369773,0.569131 l 0.115755,-0.463022 h 1.697747 z m -1.813502,-6.713817 v -6.096455 q -0.752411,-0.33762 -1.331188,-0.472668 -0.578777,-0.135048 -1.254018,-0.135048 -1.572345,0 -2.392279,1.070738 -0.819935,1.061092 -0.819935,2.932472 0,1.890672 0.655948,2.913179 0.665594,1.01286 2.083598,1.01286 0.790996,0 1.581992,-0.33762 0.790995,-0.347266 1.475882,-0.887458 z"
         style="fill:#0000ff"
         id="path2373" />
      <path
         d="m 68.071342,81.021774 q 0,2.633437 -1.35048,4.157551 -1.35048,1.524114 -3.617358,1.524114 -2.286171,0 -3.636651,-1.524114 -1.340835,-1.524114 -1.340835,-4.157551 0,-2.633437 1.340835,-4.15755 1.35048,-1.53376 3.636651,-1.53376 2.266878,0 3.617358,1.53376 1.35048,1.524113 1.35048,4.15755 z m -1.87138,0 q 0,-2.093244 -0.819934,-3.106105 -0.819935,-1.022506 -2.276524,-1.022506 -1.475883,0 -2.295817,1.022506 -0.810288,1.012861 -0.810288,3.106105 0,2.025721 0.819934,3.077167 0.819935,1.041799 2.286171,1.041799 1.446943,0 2.266878,-1.032153 0.82958,-1.041799 0.82958,-3.086813 z"
         style="fill:#0000ff"
         id="path2375" />
      <path
         d="m 79.654222,81.021774 q 0,2.633437 -1.35048,4.157551 -1.35048,1.524114 -3.617358,1.524114 -2.286171,0 -3.636651,-1.524114 -1.340835,-1.524114 -1.340835,-4.157551 0,-2.633437 1.340835,-4.15755 1.35048,-1.53376 3.636651,-1.53376 2.266878,0 3.617358,1.53376 1.35048,1.524113 1.35048,4.15755 z m -1.87138,0 q 0,-2.093244 -0.819934,-3.106105 -0.819935,-1.022506 -2.276524,-1.022506 -1.475883,0 -2.295817,1.022506 -0.810288,1.012861 -0.810288,3.106105 0,2.025721 0.819934,3.077167 0.819935,1.041799 2.286171,1.041799 1.446943,0 2.266878,-1.032153 0.82958,-1.041799 0.82958,-3.086813 z"
         style="fill:#0000ff"
         id="path2377" />
      <path
         d="m 91.536137,80.934958 q 0,1.35048 -0.385851,2.430865 -0.376205,1.080384 -1.022507,1.813502 -0.684886,0.762057 -1.504821,1.147908 -0.819934,0.376206 -1.803856,0.376206 -0.916397,0 -1.601284,-0.221865 -0.684886,-0.212218 -1.35048,-0.578777 l -0.115756,0.501607 H 82.053835 V 71.394778 h 1.813503 v 5.363337 q 0.762057,-0.627009 1.620576,-1.022507 0.85852,-0.405144 1.929258,-0.405144 1.909965,0 3.009642,1.466236 1.109323,1.466236 1.109323,4.138258 z m -1.87138,0.04823 q 0,-1.929258 -0.636655,-2.922825 -0.636655,-1.003214 -2.054659,-1.003214 -0.790996,0 -1.601284,0.347266 -0.810289,0.33762 -1.504821,0.877812 v 6.173625 q 0.771703,0.347267 1.321541,0.482315 0.559485,0.135048 1.263664,0.135048 1.504821,0 2.353695,-0.983922 0.858519,-0.993567 0.858519,-3.106105 z"
         style="fill:#0000ff"
         id="path2379" />
      <path
         d="M 103.22512,75.629499 96.935744,90.378675 H 94.99684 l 2.006428,-4.495171 -4.292599,-10.254005 h 1.967843 l 3.308678,7.987127 3.33762,-7.987127 z"
         style="fill:#0000ff"
         id="path2381" />
      <path
         d="m 106.31927,86.404404 h -2.30546 v -2.749193 h 2.30546 z"
         style="fill:#0000ff"
         id="path2383" />
      <path
         d="m 116.86035,77.606988 h -0.0965 q -0.40515,-0.09646 -0.791,-0.135048 -0.37621,-0.04823 -0.8971,-0.04823 -0.83923,0 -1.62058,0.376205 -0.78135,0.366559 -1.50482,0.954982 v 7.649508 h -1.8135 V 75.629499 h 1.8135 v 1.591638 q 1.08038,-0.868167 1.90032,-1.225079 0.82958,-0.366559 1.6881,-0.366559 0.47267,0 0.68488,0.02894 0.21222,0.01929 0.63666,0.08682 z"
         style="fill:#0000ff"
         id="path2385" />
      <path
         d="m 127.09275,86.404404 h -1.8135 v -1.19614 q -0.9164,0.723472 -1.75563,1.109323 -0.83923,0.385852 -1.85209,0.385852 -1.69774,0 -2.64308,-1.032153 -0.94534,-1.041799 -0.94534,-3.048228 v -6.993559 h 1.81351 v 6.13504 q 0,0.819934 0.0772,1.408358 0.0772,0.578777 0.32797,0.993568 0.26045,0.424436 0.67524,0.617362 0.41479,0.192926 1.20579,0.192926 0.70418,0 1.53376,-0.366559 0.83922,-0.366559 1.5627,-0.93569 v -8.045005 h 1.8135 z"
         style="fill:#0000ff"
         id="path2387" />
    </g>
    <path
       style="fill:#0000ff;fill-opacity:0;stroke:#0000ff;stroke-width:1.77561;stroke-linecap:butt;stroke-linejoin:miter;stroke-dasharray:none;stroke-opacity:1"
       d="m 54.82654,74.569489 c 0,0 -0.115128,-4.561081 0.768757,-6.553459 0.739439,-1.666789 1.620159,-3.05346 3.31984,-3.713793 6.245561,-2.426427 13.850626,-2.413937 20.101025,0 1.648462,0.636645 2.852849,1.949014 3.571629,3.563356 0.341927,0.767952 0.363928,2.521879 0.363928,2.521879"
       id="path375"
       sodipodi:nodetypes="cssssc" />
    <path
       style="fill:#0000ff;fill-opacity:0;stroke:#0000ff;stroke-width:1.76958;stroke-linecap:butt;stroke-linejoin:miter;stroke-dasharray:none;stroke-opacity:1"
       d="m 77.184643,93.97928 c 0,0 -8.648297,0.06413 -12.657857,-1.096067 -0.829241,-0.239946 -2.333572,-0.954642 -2.333572,-0.954642"
       id="path1327"
       sodipodi:nodetypes="csc" />
  </g>
</svg>
