<?xml version="1.0" encoding="UTF-8"?>
<svg width="90px" height="35px" viewBox="0 0 90 35" version="1.1" xmlns="http://www.w3.org/2000/svg" xmlns:xlink="http://www.w3.org/1999/xlink">
    <!-- Generator: Sketch 52.6 (67491) - http://www.bohemiancoding.com/sketch -->
    <title>logo</title>
    <desc>Created with Sketch.</desc>
    <defs>
        <path d="M14.6937768,28.701907 C21.4265223,29.1799801 27.7315445,28.1183894 34.7641159,7.99126352 C41.7966874,-12.1358623 30.4818647,12.1021963 23.3021629,12.1021963 C16.1224612,12.1021963 7.8018878,-0.0766942845 1.65599846,7.99126352 C-4.48989089,16.0592213 7.96103137,28.223834 14.6937768,28.701907 Z" id="path-1"></path>
        <filter x="-14.9%" y="-12.1%" width="129.3%" height="138.2%" filterUnits="objectBoundingBox" id="filter-2">
            <feOffset dx="0" dy="2" in="SourceAlpha" result="shadowOffsetOuter1"></feOffset>
            <feGaussianBlur stdDeviation="1.5" in="shadowOffsetOuter1" result="shadowBlurOuter1"></feGaussianBlur>
            <feColorMatrix values="0 0 0 0 0.0861117027   0 0 0 0 0.200077948   0 0 0 0 0.317974065  0 0 0 0.143512228 0" type="matrix" in="shadowBlurOuter1"></feColorMatrix>
        </filter>
    </defs>
    <g id="Page-1" stroke="none" stroke-width="1" fill="none" fill-rule="evenodd">
        <g id="Join" transform="translate(-160.000000, -38.000000)">
            <g id="Header">
                <g id="logo" transform="translate(163.000000, 39.000000)">
                    <g id="type" transform="translate(40.000000, 8.000000)" fill="#FFFFFF">
                        <path d="M5.30496454,19 C4.2127605,19 3.19858624,18.775426 2.26241135,18.3262712 C1.32623645,17.8771164 0.572106879,17.2457668 0,16.4322034 L1.50827423,14.7033898 C2.51379541,16.1101765 3.77934619,16.8135593 5.30496454,16.8135593 C6.32782229,16.8135593 7.10362226,16.5084776 7.63238771,15.8983051 C8.16115316,15.2881325 8.42553191,14.3898364 8.42553191,13.2033898 C8.42553191,8.91203255 8.42553191,5.69351459 8.42553191,3.54783596 C8.42553191,3.47317561 8.42553191,3.36118509 8.42553191,3.21186441 L1.8463357,3.21186441 L1.8463357,1 L11,1 C11,2.13446078 11,2.98530636 11,3.55253674 C11,5.66892218 11,8.84350032 11,13.0762712 C11,15.0423827 10.5189173,16.5211815 9.55673759,17.5127119 C8.59455784,18.5042422 7.17731433,19 5.30496454,19 Z M28,5 L28,18.8432836 L25.6292585,18.8432836 L25.6292585,16.7537313 C25.125582,17.4676653 24.46126,18.0205204 23.6362725,18.4123134 C22.8112851,18.8041064 21.9124965,19 20.9398798,19 C19.0988552,19 17.6486359,18.4906767 16.5891784,17.4720149 C15.5297208,16.4533531 15,14.9515025 15,12.9664179 L15,5 L17.501002,5 L17.501002,12.6791045 C17.501002,14.0199072 17.8223081,15.0342005 18.4649299,15.7220149 C19.1075516,16.4098293 20.0280501,16.7537313 21.2264529,16.7537313 C22.5464328,16.7537313 23.5885065,16.3532378 24.3527054,15.5522388 C25.1169043,14.7512398 25.498998,13.6194103 25.498998,12.1567164 L25.498998,5 L28,5 Z M36.3772321,19 C35.3132387,19 34.2901835,18.8490465 33.3080357,18.5471349 C32.3258879,18.2452234 31.5565504,17.8613702 31,17.3955638 L31.9821429,15.4288355 C32.5550624,15.8601377 33.25074,16.2051743 34.0691964,16.4639556 C34.8876529,16.722737 35.7142815,16.8521257 36.5491071,16.8521257 C38.6116175,16.8521257 39.6428571,16.2310598 39.6428571,14.9889094 C39.6428571,14.5748593 39.5037216,14.2470745 39.2254464,14.0055453 C38.9471712,13.764016 38.5993324,13.5871848 38.1819196,13.4750462 C37.7645068,13.3629076 37.1711348,13.2378319 36.4017857,13.0998152 C35.3541614,12.9272943 34.4988872,12.7288982 33.8359375,12.5046211 C33.1729878,12.2803439 32.604169,11.9008037 32.1294643,11.3659889 C31.6547595,10.8311742 31.4174107,10.0807196 31.4174107,9.11460259 C31.4174107,7.8724522 31.9084772,6.87615902 32.890625,6.12569316 C33.8727728,5.3752273 35.1904679,5 36.84375,5 C37.7113139,5 38.5788647,5.11213689 39.4464286,5.33641405 C40.3139924,5.5606912 41.0260389,5.86259823 41.5825893,6.24214418 L40.5758929,8.20887246 C39.5118994,7.48428473 38.2596798,7.1219963 36.8191964,7.1219963 C35.8206795,7.1219963 35.0595264,7.2945146 34.5357143,7.63955638 C34.0119021,7.98459815 33.75,8.44177165 33.75,9.01109057 C33.75,9.45964488 33.89732,9.81330739 34.1919643,10.0720887 C34.4866086,10.3308701 34.8508163,10.5206402 35.2845982,10.6414048 C35.7183801,10.7621694 36.3281211,10.9001841 37.1138393,11.0554529 C38.1614636,11.2452258 39.0085533,11.4479348 39.6551339,11.663586 C40.3017145,11.8792371 40.8541644,12.2458384 41.3125,12.7634011 C41.7708356,13.2809638 42,14.0055406 42,14.9371534 C42,16.1793038 41.4966568,17.1669711 40.4899554,17.9001848 C39.4832539,18.6333986 38.1123599,19 36.3772321,19 Z M45,0 L47,0 L47,19 L45,19 L45,0 Z" id="Jusl"></path>
                    </g>
                    <g id="icon-copy">
                        <use fill="black" fill-opacity="1" filter="url(#filter-2)" xlink:href="#path-1"></use>
                        <use fill="#FFFFFF" fill-rule="evenodd" xlink:href="#path-1"></use>
                    </g>
                    <circle id="Oval" fill="#5E6CCB" cx="20.5" cy="20.5" r="2.5"></circle>
                </g>
            </g>
        </g>
    </g>
</svg>