<?xml version="1.0" encoding="UTF-8" standalone="no"?>
<!-- Created with Inkscape (http://www.inkscape.org/) -->

<svg
   width="56.579525mm"
   height="27.420412mm"
   viewBox="0 0 56.579525 27.420412"
   version="1.1"
   id="svg5"
   inkscape:export-filename="logo7.svg"
   inkscape:export-xdpi="50.101803"
   inkscape:export-ydpi="50.101803"
   sodipodi:docname="logo3.svg"
   xmlns:inkscape="http://www.inkscape.org/namespaces/inkscape"
   xmlns:sodipodi="http://sodipodi.sourceforge.net/DTD/sodipodi-0.dtd"
   xmlns="http://www.w3.org/2000/svg"
   xmlns:svg="http://www.w3.org/2000/svg">
  <sodipodi:namedview
     id="namedview7"
     pagecolor="#030303"
     bordercolor="#111111"
     borderopacity="0"
     inkscape:showpageshadow="0"
     inkscape:pageopacity="0"
     inkscape:pagecheckerboard="true"
     inkscape:deskcolor="#d1d1d1"
     inkscape:document-units="mm"
     showgrid="false" />
  <defs
     id="defs2" />
  <path
     style="fill:#f9f9f9;fill-opacity:0;stroke:#000000;stroke-width:1.24499;stroke-linecap:butt;stroke-linejoin:miter;stroke-dasharray:none;stroke-opacity:0.603448"
     d="m 25.705609,18.277878 c 0,0 0.0803,3.214773 -0.536217,4.619055 -0.515767,1.174798 -1.130079,2.152161 -2.315627,2.617581 -4.356351,1.710209 -9.660973,1.701406 -14.0206993,0 C 7.6832442,25.06579 6.8431699,24.140797 6.3418125,23.002965 6.1033144,22.461692 6.0879684,21.225477 6.0879684,21.225477"
     id="path375-6"
     sodipodi:nodetypes="cssssc"
     inkscape:label="path375-6" />
  <g
     inkscape:label="Слой 1"
     inkscape:groupmode="layer"
     id="layer1"
     style="display:inline"
     transform="translate(-46.11179,-73.084153)">
    <g
       aria-label="qooby.ru"
       id="text113"
       style="font-size:19.7556px;letter-spacing:-0.407458px;fill:#000000;fill-opacity:0.627586;stroke:#000000;stroke-width:0.266174;stroke-opacity:0.665517">
      <path
         d="m 52.819121,93.369429 h -1.264939 v -3.657844 q -0.58537,0.509923 -1.164013,0.761485 -0.578642,0.244762 -1.251482,0.244762 -1.338951,0 -2.139631,-1.040241 -0.793951,-1.047041 -0.793951,-2.882761 0,-0.979051 0.275864,-1.726937 0.282593,-0.754685 0.740124,-1.264607 0.444075,-0.496325 1.042902,-0.768284 0.598827,-0.271958 1.264939,-0.271958 0.605556,0 1.069816,0.13598 0.470987,0.135978 0.955432,0.401139 l 0.08074,-0.326351 H 52.81912 Z M 51.554182,88.63735 v -4.296946 q -0.524815,-0.237964 -0.928519,-0.333149 -0.403704,-0.09519 -0.874692,-0.09519 -1.096729,0 -1.668643,0.754685 -0.571914,0.747886 -0.571914,2.066885 0,1.332597 0.457532,2.053287 0.464259,0.713891 1.453334,0.713891 0.551728,0 1.103457,-0.237963 0.551729,-0.244763 1.029445,-0.625504 z"
         style="fill:#000000;fill-opacity:0.627586;stroke:#000000;stroke-width:0.18663;stroke-opacity:0.665517"
         id="path2373" />
      <path
         d="m 61.429858,86.774433 q 0,1.856117 -0.941975,2.930354 -0.941976,1.074236 -2.52315,1.074236 -1.594631,0 -2.536606,-1.074236 -0.935248,-1.074237 -0.935248,-2.930354 0,-1.856118 0.935248,-2.930353 0.941975,-1.081036 2.536606,-1.081036 1.581174,0 2.52315,1.081036 0.941975,1.074235 0.941975,2.930353 z m -1.305309,0 q 0,-1.475375 -0.571914,-2.189267 -0.571914,-0.720689 -1.587902,-0.720689 -1.029445,0 -1.601359,0.720689 -0.565185,0.713892 -0.565185,2.189267 0,1.427782 0.571913,2.16887 0.571914,0.734288 1.594631,0.734288 1.00926,0 1.581174,-0.727489 0.578642,-0.734288 0.578642,-2.175669 z"
         style="fill:#000000;fill-opacity:0.627586;stroke:#000000;stroke-width:0.18663;stroke-opacity:0.665517"
         id="path2375" />
      <path
         d="m 69.509052,86.774433 q 0,1.856117 -0.941975,2.930354 -0.941976,1.074236 -2.52315,1.074236 -1.594631,0 -2.536606,-1.074236 -0.935248,-1.074237 -0.935248,-2.930354 0,-1.856118 0.935248,-2.930353 0.941975,-1.081036 2.536606,-1.081036 1.581174,0 2.52315,1.081036 0.941975,1.074235 0.941975,2.930353 z m -1.305309,0 q 0,-1.475375 -0.571914,-2.189267 -0.571914,-0.720689 -1.587902,-0.720689 -1.029445,0 -1.601359,0.720689 -0.565185,0.713892 -0.565185,2.189267 0,1.427782 0.571913,2.16887 0.571914,0.734288 1.594631,0.734288 1.00926,0 1.581174,-0.727489 0.578642,-0.734288 0.578642,-2.175669 z"
         style="fill:#000000;fill-opacity:0.627586;stroke:#000000;stroke-width:0.18663;stroke-opacity:0.665517"
         id="path2377" />
      <path
         d="m 77.796827,86.713243 q 0,0.951854 -0.269136,1.713339 -0.262407,0.761483 -0.71321,1.278205 -0.477716,0.537118 -1.049631,0.809076 -0.571913,0.26516 -1.25821,0.26516 -0.639198,0 -1.116915,-0.156376 -0.477716,-0.149577 -0.941975,-0.407938 l -0.08074,0.353546 h -1.1842 V 79.989067 h 1.26494 v 3.780224 q 0.531543,-0.441933 1.13037,-0.72069 0.598828,-0.285557 1.34568,-0.285557 1.332223,0 2.099261,1.033443 0.773766,1.033442 0.773766,2.916756 z m -1.30531,0.03399 q 0,-1.359793 -0.444074,-2.060085 -0.444074,-0.707093 -1.433149,-0.707093 -0.551729,0 -1.116914,0.244763 -0.565186,0.237963 -1.04963,0.618705 v 4.351337 q 0.538272,0.244764 0.92179,0.339949 0.390247,0.09519 0.88142,0.09519 1.049631,0 1.64173,-0.693494 0.598827,-0.700293 0.598827,-2.189267 z"
         style="fill:#000000;fill-opacity:0.627586;stroke:#000000;stroke-width:0.18663;stroke-opacity:0.665517"
         id="path2379" />
      <path
         d="m 85.950029,82.973812 -4.386913,10.395617 h -1.352409 l 1.399507,-3.168318 -2.994138,-7.227299 h 1.372594 l 2.307841,5.629542 2.328029,-5.629542 z"
         style="fill:#000000;fill-opacity:0.627586;stroke:#000000;stroke-width:0.18663;stroke-opacity:0.665517"
         id="path2381" />
      <path
         d="M 88.108235,90.568255 H 86.500149 V 88.63055 h 1.608086 z"
         style="fill:#000000;fill-opacity:0.627586;stroke:#000000;stroke-width:0.18663;stroke-opacity:0.665517"
         id="path2383" />
      <path
         d="m 95.460761,84.3676 h -0.06731 q -0.282597,-0.06799 -0.551732,-0.09519 -0.262411,-0.03399 -0.625737,-0.03399 -0.585373,0 -1.130374,0.26516 -0.545001,0.25836 -1.049629,0.673097 v 5.391579 h -1.264938 v -7.594444 h 1.264938 v 1.121829 q 0.753577,-0.611907 1.325495,-0.863468 0.578642,-0.258361 1.177469,-0.258361 0.329693,0 0.477712,0.0204 0.148026,0.0136 0.444078,0.06119 z"
         style="fill:#000000;fill-opacity:0.627586;stroke:#000000;stroke-width:0.18663;stroke-opacity:0.665517"
         id="path2385" />
      <path
         d="m 102.59798,90.568255 h -1.26494 v -0.843071 q -0.6392,0.509922 -1.22457,0.78188 -0.585373,0.271959 -1.291855,0.271959 -1.184193,0 -1.843579,-0.727489 -0.659386,-0.734288 -0.659386,-2.148473 v -4.929249 h 1.264945 v 4.324142 q 0,0.577911 0.05385,0.992648 0.05385,0.407938 0.228762,0.700294 0.181667,0.299154 0.470988,0.435133 0.289321,0.135979 0.841053,0.135979 0.491174,0 1.069812,-0.25836 0.58537,-0.258361 1.09,-0.6595 v -5.670336 h 1.26494 z"
         style="fill:#000000;fill-opacity:0.627586;stroke:#000000;stroke-width:0.18663;stroke-opacity:0.665517"
         id="path2387" />
    </g>
    <path
       style="fill:#f9f9f9;fill-opacity:0;stroke:#000000;stroke-width:1.24499;stroke-linecap:butt;stroke-linejoin:miter;stroke-dasharray:none;stroke-opacity:0.603448"
       d="m 52.191454,82.226689 c 0,0 -0.0803,-3.214773 0.536217,-4.619055 0.515767,-1.174798 1.13008,-2.152161 2.315627,-2.617581 4.356352,-1.710211 9.660974,-1.701408 14.0207,0 1.149821,0.448724 1.989895,1.373717 2.491253,2.511549 0.238498,0.541273 0.253844,1.777488 0.253844,1.777488"
       id="path375"
       sodipodi:nodetypes="cssssc" />
    <path
       style="fill:#f9f9f9;fill-opacity:0;stroke:#010101;stroke-width:1.24076;stroke-linecap:butt;stroke-linejoin:miter;stroke-dasharray:none;stroke-opacity:0.6"
       d="m 67.786492,95.907232 c 0,0 -6.032288,0.0452 -8.829003,-0.772538 -0.578405,-0.16912 -1.627694,-0.672857 -1.627694,-0.672857"
       id="path1327"
       sodipodi:nodetypes="csc" />
  </g>
</svg>
