<?xml version="1.0" encoding="UTF-8" standalone="no"?>
<!-- Created with Inkscape (http://www.inkscape.org/) -->

<svg
   width="48.083443mm"
   height="9.5357609mm"
   viewBox="0 0 48.083443 9.5357609"
   version="1.1"
   id="svg5"
   inkscape:export-filename="logo4.svg"
   inkscape:export-xdpi="96"
   inkscape:export-ydpi="96"
   xmlns:inkscape="http://www.inkscape.org/namespaces/inkscape"
   xmlns:sodipodi="http://sodipodi.sourceforge.net/DTD/sodipodi-0.dtd"
   xmlns="http://www.w3.org/2000/svg"
   xmlns:svg="http://www.w3.org/2000/svg">
  <sodipodi:namedview
     id="namedview7"
     pagecolor="#030303"
     bordercolor="#111111"
     borderopacity="0"
     inkscape:showpageshadow="0"
     inkscape:pageopacity="0"
     inkscape:pagecheckerboard="true"
     inkscape:deskcolor="#d1d1d1"
     inkscape:document-units="mm"
     showgrid="false" />
  <defs
     id="defs2" />
  <path
     style="fill:none;fill-opacity:0.703448;stroke:#000000;stroke-width:0.436378;stroke-linecap:butt;stroke-linejoin:miter;stroke-dasharray:none;stroke-opacity:1"
     d="m 37.171813,6.3557358 c 0,0 0.0284,1.117548 -0.1895,1.605718 -0.18228,0.408394 -0.39938,0.748154 -0.81837,0.909948 -1.53958,0.594518 -3.41429,0.591458 -4.95507,0 -0.40635,-0.15599 -0.70325,-0.477545 -0.88044,-0.873088 -0.0843,-0.188163 -0.0897,-0.617906 -0.0897,-0.617906"
     id="path375-6"
     sodipodi:nodetypes="cssssc"
     inkscape:label="path375-6" />
  <g
     inkscape:label="Слой 1"
     inkscape:groupmode="layer"
     id="layer1"
     style="display:inline"
     transform="translate(-75.512087,-7.2162392)">
    <g
       aria-label="qooby.ru"
       id="text113"
       style="font-size:19.7556px;letter-spacing:-0.407458px;fill:#000000;fill-opacity:0.993103;stroke:#000000;stroke-width:0.266174;stroke-opacity:1"
       transform="matrix(0.50492019,0,0,0.48371906,101.45922,-23.071121)">
      <path
         d="M 8.9330597,77.195481 H 8.047685 v -2.628743 q -0.4097213,0.366461 -0.8147333,0.547248 -0.405012,0.175902 -0.8759562,0.175902 -0.9371785,0 -1.4976022,-0.74758 -0.5557138,-0.752465 -0.5557138,-2.071723 0,-0.703603 0.193087,-1.241078 0.197796,-0.542362 0.5180385,-0.908822 0.3108231,-0.356689 0.7299635,-0.552134 0.4191399,-0.195445 0.8853748,-0.195445 0.4238497,0 0.7488011,0.09772 0.3296607,0.09772 0.6687406,0.288283 L 8.104198,69.724574 H 8.9330597 Z M 8.047685,73.794729 V 70.70669 q -0.3673366,-0.171015 -0.6499029,-0.239421 -0.2825664,-0.0684 -0.6122276,-0.0684 -0.7676388,0 -1.167941,0.542361 -0.4003027,0.537475 -0.4003027,1.485386 0,0.957683 0.3202422,1.475614 0.3249514,0.513044 1.017239,0.513044 0.3861743,0 0.7723486,-0.171015 0.3861738,-0.175901 0.7205444,-0.449524 z"
         style="fill:#000000;fill-opacity:0.993103;stroke:#000000;stroke-width:0.132365;stroke-opacity:1"
         id="path2373" />
      <path
         d="m 14.960014,72.455927 q 0,1.333916 -0.659321,2.105925 -0.659322,0.772011 -1.76604,0.772011 -1.116138,0 -1.77546,-0.772011 -0.654612,-0.772009 -0.654612,-2.105925 0,-1.333916 0.654612,-2.105926 0.659322,-0.776895 1.77546,-0.776895 1.106718,0 1.76604,0.776895 0.659321,0.77201 0.659321,2.105926 z m -0.913631,0 q 0,-1.060292 -0.400302,-1.573336 -0.400303,-0.517931 -1.111428,-0.517931 -0.720545,0 -1.120847,0.517931 -0.395593,0.513044 -0.395593,1.573336 0,1.026089 0.400302,1.558679 0.400303,0.527702 1.116138,0.527702 0.706416,0 1.106718,-0.522816 0.405012,-0.527703 0.405012,-1.563565 z"
         style="fill:#000000;fill-opacity:0.993103;stroke:#000000;stroke-width:0.132365;stroke-opacity:1"
         id="path2375" />
      <path
         d="m 20.614924,72.455927 q 0,1.333916 -0.659322,2.105925 -0.659321,0.772011 -1.766039,0.772011 -1.116139,0 -1.77546,-0.772011 -0.654612,-0.772009 -0.654612,-2.105925 0,-1.333916 0.654612,-2.105926 0.659321,-0.776895 1.77546,-0.776895 1.106718,0 1.766039,0.776895 0.659322,0.77201 0.659322,2.105926 z m -0.913632,0 q 0,-1.060292 -0.400302,-1.573336 -0.400303,-0.517931 -1.111427,-0.517931 -0.720545,0 -1.120848,0.517931 -0.395592,0.513044 -0.395592,1.573336 0,1.026089 0.400301,1.558679 0.400303,0.527702 1.116139,0.527702 0.706415,0 1.106718,-0.522816 0.405011,-0.527703 0.405011,-1.563565 z"
         style="fill:#000000;fill-opacity:0.993103;stroke:#000000;stroke-width:0.132365;stroke-opacity:1"
         id="path2377" />
      <path
         d="m 26.415826,72.411952 q 0,0.684059 -0.188378,1.231307 -0.183668,0.547247 -0.499201,0.918593 -0.33437,0.386005 -0.734673,0.581451 -0.400301,0.19056 -0.880664,0.19056 -0.447398,0 -0.781768,-0.112382 -0.33437,-0.107495 -0.659321,-0.293168 l -0.05652,0.254079 h -0.828859 v -7.602831 h 0.885376 v 2.716693 q 0.372046,-0.317599 0.791185,-0.517931 0.419141,-0.205217 0.941889,-0.205217 0.932468,0 1.469345,0.742693 0.541586,0.742692 0.541586,2.096153 z m -0.913632,0.02443 q 0,-0.977227 -0.310823,-1.480499 -0.310823,-0.508158 -1.00311,-0.508158 -0.386175,0 -0.781767,0.175901 -0.395594,0.171015 -0.734673,0.444638 v 3.127129 q 0.376755,0.175901 0.645193,0.244307 0.273148,0.06841 0.616937,0.06841 0.734672,0 1.149103,-0.498387 0.41914,-0.503272 0.41914,-1.573337 z"
         style="fill:#000000;fill-opacity:0.993103;stroke:#000000;stroke-width:0.132365;stroke-opacity:1"
         id="path2379" />
      <path
         d="m 32.122536,69.724576 -3.070554,7.470905 h -0.946597 l 0.979563,-2.27694 -2.095701,-5.193965 h 0.960726 l 1.615339,4.045723 1.629468,-4.045723 z"
         style="fill:#000000;fill-opacity:0.993103;stroke:#000000;stroke-width:0.132365;stroke-opacity:1"
         id="path2381" />
      <path
         d="m 33.633139,75.182392 h -1.125554 v -1.392549 h 1.125554 z"
         style="fill:#000000;fill-opacity:0.993103;stroke:#000000;stroke-width:0.132365;stroke-opacity:1"
         id="path2383" />
      <path
         d="m 38.779428,70.726234 h -0.04711 q -0.197799,-0.04886 -0.386176,-0.0684 -0.18367,-0.02443 -0.437975,-0.02443 -0.409723,0 -0.791188,0.190559 -0.381465,0.185674 -0.734672,0.483727 v 3.874707 H 35.49693 v -5.457821 h 0.885374 v 0.806213 q 0.527456,-0.439753 0.92776,-0.62054 0.405012,-0.185673 0.824152,-0.185673 0.230764,0 0.334368,0.01466 0.103608,0.0098 0.310825,0.04398 z"
         style="fill:#000000;fill-opacity:0.993103;stroke:#000000;stroke-width:0.132365;stroke-opacity:1"
         id="path2385" />
      <path
         d="m 43.775016,75.182392 h -0.885373 v -0.60588 q -0.447399,0.366459 -0.857121,0.561905 -0.409724,0.195446 -0.904214,0.195446 -0.828859,0 -1.290386,-0.522817 -0.461526,-0.527703 -0.461526,-1.54402 v -3.54245 h 0.885378 v 3.107584 q 0,0.415322 0.03769,0.713376 0.03769,0.293168 0.160118,0.503272 0.127156,0.21499 0.329661,0.312713 0.202506,0.09772 0.588682,0.09772 0.34379,0 0.748802,-0.185674 0.409717,-0.185673 0.762929,-0.473955 v -4.075039 h 0.885374 z"
         style="fill:#000000;fill-opacity:0.993103;stroke:#000000;stroke-width:0.132365;stroke-opacity:1"
         id="path2387" />
    </g>
    <path
       style="fill:none;fill-opacity:0.703448;stroke:#000000;stroke-width:0.436378;stroke-linecap:butt;stroke-linejoin:miter;stroke-dasharray:none;stroke-opacity:1"
       d="m 105.74788,10.396264 c 0,0 -0.0284,-1.1175492 0.1895,-1.6057182 0.18228,-0.408394 0.39939,-0.7481531 0.81838,-0.9099471 1.53957,-0.59452 3.41429,-0.591459 4.95506,0 0.40636,0.155989 0.70325,0.4775437 0.88044,0.8730872 0.0843,0.1881624 0.0897,0.6179067 0.0897,0.6179067"
       id="path375"
       sodipodi:nodetypes="cssssc" />
    <path
       style="fill:#070707;fill-opacity:0.703448;stroke:#000000;stroke-width:0.434896;stroke-linecap:butt;stroke-linejoin:miter;stroke-dasharray:none;stroke-opacity:1"
       d="m 111.25934,15.152019 c 0,0 -2.13188,0.01571 -3.12027,-0.268556 -0.20441,-0.05879 -0.57525,-0.233905 -0.57525,-0.233905"
       id="path1327"
       sodipodi:nodetypes="csc" />
    <g
       aria-label="Powered by"
       transform="scale(0.98199953,1.0183304)"
       id="text2498"
       style="font-size:9.47137px;fill:#ffffff;fill-opacity:0.703448;stroke:#ffffff;stroke-width:0.512987">
      <path
         d="m 79.095396,10.692982 q 0,0.231912 -0.07903,0.431028 -0.07676,0.196774 -0.216753,0.342012 -0.173853,0.180377 -0.410925,0.271736 -0.237073,0.08902 -0.598326,0.08902 h -0.447051 v 1.300113 H 76.896262 V 9.6388349 h 0.912165 q 0.30255,0 0.512528,0.053878 0.209979,0.051536 0.372543,0.1639786 0.191916,0.1335249 0.295776,0.3326415 0.106118,0.199117 0.106118,0.503648 z m -0.465114,0.01171 q 0,-0.180377 -0.06096,-0.313902 -0.06096,-0.133524 -0.185142,-0.217856 -0.108376,-0.07262 -0.248363,-0.103072 -0.137727,-0.0328 -0.349963,-0.0328 h -0.442535 v 1.393816 h 0.377057 q 0.27094,0 0.440278,-0.0492 0.169337,-0.05153 0.275456,-0.161636 0.106117,-0.112442 0.149017,-0.236597 0.04515,-0.124155 0.04515,-0.278763 z"
         style="fill:#070707;fill-opacity:0.703448;stroke:none;stroke-width:0.255102"
         id="path2652" />
      <path
         d="m 81.68739,11.819747 q 0,0.639515 -0.316098,1.009637 -0.316096,0.370123 -0.846688,0.370123 -0.535106,0 -0.851202,-0.370123 -0.313839,-0.370122 -0.313839,-1.009637 0,-0.639515 0.313839,-1.009638 0.316096,-0.372465 0.851202,-0.372465 0.530592,0 0.846688,0.372465 0.316098,0.370123 0.316098,1.009638 z m -0.43802,0 q 0,-0.508333 -0.191916,-0.754301 -0.191916,-0.248309 -0.53285,-0.248309 -0.345448,0 -0.537363,0.248309 -0.189659,0.245968 -0.189659,0.754301 0,0.491934 0.191916,0.747272 0.191916,0.252995 0.535106,0.252995 0.338676,0 0.530592,-0.250652 0.194174,-0.252995 0.194174,-0.749615 z"
         style="fill:#070707;fill-opacity:0.703448;stroke:none;stroke-width:0.255102"
         id="path2654" />
      <path
         d="m 85.516675,10.510263 -0.65703,2.616625 h -0.392863 l -0.647998,-2.016933 -0.643483,2.016933 h -0.390605 l -0.663803,-2.616625 h 0.442536 l 0.462855,2.026303 0.629936,-2.026303 h 0.349964 l 0.645741,2.026303 0.438019,-2.026303 z"
         style="fill:#070707;fill-opacity:0.703448;stroke:none;stroke-width:0.255102"
         id="path2656" />
      <path
         d="m 88.239622,11.864255 h -1.858197 q 0,0.241283 0.07,0.421658 0.07,0.178034 0.191916,0.292819 0.117408,0.112442 0.277714,0.168663 0.162564,0.05622 0.356737,0.05622 0.257393,0 0.517044,-0.105415 0.261909,-0.107757 0.372542,-0.210829 h 0.02258 v 0.480222 q -0.214494,0.0937 -0.43802,0.15695 -0.223526,0.06325 -0.469629,0.06325 -0.627678,0 -0.9799,-0.351382 -0.352222,-0.353724 -0.352222,-1.00261 0,-0.641858 0.336417,-1.019007 0.338675,-0.377151 0.889587,-0.377151 0.51027,0 0.785726,0.309217 0.277713,0.309216 0.277713,0.878454 z m -0.413183,-0.337327 q -0.0022,-0.346696 -0.169339,-0.536443 -0.164821,-0.189746 -0.503496,-0.189746 -0.340933,0 -0.544138,0.208486 -0.200947,0.208487 -0.228041,0.517703 z"
         style="fill:#070707;fill-opacity:0.703448;stroke:none;stroke-width:0.255102"
         id="path2658" />
      <path
         d="m 90.456814,10.990485 h -0.02258 q -0.09483,-0.02342 -0.185142,-0.0328 -0.08806,-0.01171 -0.209979,-0.01171 -0.196431,0 -0.379316,0.09136 -0.182884,0.08902 -0.352221,0.231912 v 1.857639 h -0.424473 v -2.616624 h 0.424473 v 0.38652 q 0.252876,-0.210829 0.444792,-0.297503 0.194174,-0.08902 0.395121,-0.08902 0.110634,0 0.160307,0.0071 0.04967,0.0046 0.149016,0.02108 z"
         style="fill:#070707;fill-opacity:0.703448;stroke:none;stroke-width:0.255102"
         id="path2660" />
      <path
         d="m 92.967528,11.864255 h -1.858199 q 0,0.241283 0.06999,0.421658 0.07,0.178034 0.191915,0.292819 0.117408,0.112442 0.277714,0.168663 0.162564,0.05622 0.356738,0.05622 0.257393,0 0.517042,-0.105415 0.261912,-0.107757 0.372545,-0.210829 h 0.02255 v 0.480222 q -0.214491,0.0937 -0.438019,0.15695 -0.223523,0.06325 -0.469628,0.06325 -0.627677,0 -0.9799,-0.351382 -0.352221,-0.353724 -0.352221,-1.00261 0,-0.641858 0.336417,-1.019007 0.338675,-0.377151 0.889586,-0.377151 0.510272,0 0.785727,0.309217 0.277715,0.309216 0.277715,0.878454 z m -0.413185,-0.337327 q -0.0025,-0.346696 -0.169336,-0.536443 -0.164824,-0.189746 -0.503499,-0.189746 -0.340933,0 -0.544137,0.208486 -0.200948,0.208487 -0.228042,0.517703 z"
         style="fill:#070707;fill-opacity:0.703448;stroke:none;stroke-width:0.255102"
         id="path2662" />
      <path
         d="M 95.656608,13.126888 H 95.232131 V 12.85281 q -0.182884,0.163978 -0.381571,0.255338 -0.198689,0.09136 -0.431244,0.09136 -0.451567,0 -0.717995,-0.360753 -0.264167,-0.360752 -0.264167,-1.000267 0,-0.332642 0.09031,-0.592664 0.09257,-0.260023 0.248364,-0.442742 0.153533,-0.178034 0.356737,-0.271735 0.205464,-0.0937 0.424472,-0.0937 0.198688,0 0.352221,0.04451 0.153533,0.04216 0.322869,0.133524 V 9.4818847 h 0.424477 z m -0.424477,-0.6442 v -1.501573 q -0.171592,-0.07965 -0.307061,-0.1101 -0.135469,-0.03045 -0.295778,-0.03045 -0.356737,0 -0.555426,0.257681 -0.198693,0.25768 -0.198693,0.730875 0,0.466167 0.153534,0.709791 0.153533,0.241283 0.492211,0.241283 0.180624,0 0.365769,-0.08199 0.18514,-0.08433 0.345444,-0.215514 z"
         style="fill:#070707;fill-opacity:0.703448;stroke:none;stroke-width:0.255102"
         id="path2664" />
      <path
         d="m 100.33709,11.798664 q 0,0.327957 -0.0903,0.590321 -0.088,0.262366 -0.23932,0.440399 -0.160312,0.185062 -0.352224,0.278764 -0.191916,0.09136 -0.422216,0.09136 -0.214496,0 -0.374801,-0.05388 -0.160305,-0.05153 -0.316098,-0.140553 l -0.0271,0.121812 H 98.117642 V 9.4818842 h 0.424471 v 1.3024568 q 0.178369,-0.152267 0.379317,-0.248311 0.200948,-0.09839 0.451567,-0.09839 0.447052,0 0.704443,0.356068 0.25965,0.356067 0.25965,1.004952 z m -0.438016,0.01171 q 0,-0.468509 -0.149017,-0.709791 -0.149017,-0.243626 -0.480919,-0.243626 -0.18514,0 -0.3748,0.08433 -0.189657,0.08198 -0.352222,0.213173 v 1.499229 q 0.180629,0.08433 0.309326,0.117128 0.130954,0.0328 0.295775,0.0328 0.352221,0 0.550909,-0.23894 0.200948,-0.241282 0.200948,-0.7543 z"
         style="fill:#070707;fill-opacity:0.703448;stroke:none;stroke-width:0.255102"
         id="path2666" />
      <path
         d="m 103.16842,10.510263 -1.47211,3.581754 h -0.45383 l 0.46964,-1.091626 -1.00474,-2.490128 h 0.4606 l 0.77443,1.939628 0.78121,-1.939628 z"
         style="fill:#070707;fill-opacity:0.703448;stroke:none;stroke-width:0.255102"
         id="path2668" />
    </g>
  </g>
</svg>
