<?xml version="1.0" encoding="UTF-8"?>
<svg width="206px" height="35px" viewBox="0 0 206 35" version="1.1" xmlns="http://www.w3.org/2000/svg" xmlns:xlink="http://www.w3.org/1999/xlink">
    <!-- Generator: Sketch 52.6 (67491) - http://www.bohemiancoding.com/sketch -->
    <title>Group Copy</title>
    <desc>Created with Sketch.</desc>
    <defs>
        <path d="M14.6937768,28.701907 C21.4265223,29.1799801 27.7315445,28.1183894 34.7641159,7.99126352 C41.7966874,-12.1358623 30.4818647,12.1021963 23.3021629,12.1021963 C16.1224612,12.1021963 7.8018878,-0.0766942845 1.65599846,7.99126352 C-4.48989089,16.0592213 7.96103137,28.223834 14.6937768,28.701907 Z" id="path-1"></path>
        <filter x="-14.9%" y="-12.1%" width="129.3%" height="138.2%" filterUnits="objectBoundingBox" id="filter-2">
            <feOffset dx="0" dy="2" in="SourceAlpha" result="shadowOffsetOuter1"></feOffset>
            <feGaussianBlur stdDeviation="1.5" in="shadowOffsetOuter1" result="shadowBlurOuter1"></feGaussianBlur>
            <feColorMatrix values="0 0 0 0 0.0861117027   0 0 0 0 0.200077948   0 0 0 0 0.317974065  0 0 0 0.143512228 0" type="matrix" in="shadowBlurOuter1"></feColorMatrix>
        </filter>
    </defs>
    <g id="Page-1" stroke="none" stroke-width="1" fill="none" fill-rule="evenodd">
        <g id="Join" transform="translate(-618.000000, -1018.000000)">
            <g id="Group-Copy" transform="translate(616.000000, 1019.000000)">
                <path d="M7.066,13.4 C8.69800816,13.4 9.98199532,13.7899961 10.918,14.57 C11.8540047,15.3500039 12.322,16.4239932 12.322,17.792 C12.322,19.1600068 11.8540047,20.2339961 10.918,21.014 C9.98199532,21.7940039 8.69800816,22.184 7.066,22.184 L3.952,22.184 L3.952,26 L2.152,26 L2.152,13.4 L7.066,13.4 Z M7.012,20.618 C8.1520057,20.618 9.021997,20.3750024 9.622,19.889 C10.222003,19.4029976 10.522,18.7040046 10.522,17.792 C10.522,16.8799954 10.222003,16.1810024 9.622,15.695 C9.021997,15.2089976 8.1520057,14.966 7.012,14.966 L3.952,14.966 L3.952,20.618 L7.012,20.618 Z M18.982,26.108 C18.0339953,26.108 17.1820038,25.8980021 16.426,25.478 C15.6699962,25.0579979 15.0790021,24.4790037 14.653,23.741 C14.2269979,23.0029963 14.014,22.1660047 14.014,21.23 C14.014,20.2939953 14.2269979,19.4570037 14.653,18.719 C15.0790021,17.9809963 15.6699962,17.4050021 16.426,16.991 C17.1820038,16.5769979 18.0339953,16.37 18.982,16.37 C19.9300047,16.37 20.7789962,16.5769979 21.529,16.991 C22.2790037,17.4050021 22.8669979,17.9809963 23.293,18.719 C23.7190021,19.4570037 23.932,20.2939953 23.932,21.23 C23.932,22.1660047 23.7190021,23.0029963 23.293,23.741 C22.8669979,24.4790037 22.2790037,25.0579979 21.529,25.478 C20.7789962,25.8980021 19.9300047,26.108 18.982,26.108 Z M18.982,24.596 C19.5940031,24.596 20.1429976,24.4550014 20.629,24.173 C21.1150024,23.8909986 21.4959986,23.4950025 21.772,22.985 C22.0480014,22.4749975 22.186,21.8900033 22.186,21.23 C22.186,20.5699967 22.0480014,19.9850025 21.772,19.475 C21.4959986,18.9649974 21.1150024,18.5720014 20.629,18.296 C20.1429976,18.0199986 19.5940031,17.882 18.982,17.882 C18.3699969,17.882 17.8210024,18.0199986 17.335,18.296 C16.8489976,18.5720014 16.4650014,18.9649974 16.183,19.475 C15.9009986,19.9850025 15.76,20.5699967 15.76,21.23 C15.76,21.8900033 15.9009986,22.4749975 16.183,22.985 C16.4650014,23.4950025 16.8489976,23.8909986 17.335,24.173 C17.8210024,24.4550014 18.3699969,24.596 18.982,24.596 Z M40.762,16.46 L37.198,26 L35.542,26 L32.788,18.764 L29.998,26 L28.342,26 L24.796,16.46 L26.434,16.46 L29.206,24.056 L32.086,16.46 L33.544,16.46 L36.37,24.092 L39.214,16.46 L40.762,16.46 Z M51.13,21.284 C51.13,21.4160007 51.1180001,21.5899989 51.094,21.806 L43.354,21.806 C43.4620005,22.6460042 43.8309968,23.3209975 44.461,23.831 C45.0910031,24.3410025 45.8739953,24.596 46.81,24.596 C47.9500057,24.596 48.8679965,24.2120038 49.564,23.444 L50.518,24.56 C50.0859978,25.0640025 49.5490032,25.4479987 48.907,25.712 C48.2649968,25.9760013 47.548004,26.108 46.756,26.108 C45.747995,26.108 44.8540039,25.9010021 44.074,25.487 C43.2939961,25.0729979 42.6910021,24.4940037 42.265,23.75 C41.8389979,23.0059963 41.626,22.1660047 41.626,21.23 C41.626,20.3059954 41.8329979,19.4720037 42.247,18.728 C42.6610021,17.9839963 43.2309964,17.4050021 43.957,16.991 C44.6830036,16.5769979 45.5019954,16.37 46.414,16.37 C47.3260046,16.37 48.1389964,16.5769979 48.853,16.991 C49.5670036,17.4050021 50.124998,17.9839963 50.527,18.728 C50.929002,19.4720037 51.13,20.3239952 51.13,21.284 Z M46.414,17.828 C45.5859959,17.828 44.8930028,18.0799975 44.335,18.584 C43.7769972,19.0880025 43.4500005,19.7479959 43.354,20.564 L49.474,20.564 C49.3779995,19.759996 49.0510028,19.1030025 48.493,18.593 C47.9349972,18.0829975 47.2420041,17.828 46.414,17.828 Z M55.18,18.062 C55.4800015,17.5099972 55.9239971,17.0900014 56.512,16.802 C57.1000029,16.5139986 57.8139958,16.37 58.654,16.37 L58.654,18.044 C58.5579995,18.0319999 58.4260008,18.026 58.258,18.026 C57.3219953,18.026 56.5870027,18.3049972 56.053,18.863 C55.5189973,19.4210028 55.252,20.2159948 55.252,21.248 L55.252,26 L53.524,26 L53.524,16.46 L55.18,16.46 L55.18,18.062 Z M69.526,21.284 C69.526,21.4160007 69.5140001,21.5899989 69.49,21.806 L61.75,21.806 C61.8580005,22.6460042 62.2269968,23.3209975 62.857,23.831 C63.4870031,24.3410025 64.2699953,24.596 65.206,24.596 C66.3460057,24.596 67.2639965,24.2120038 67.96,23.444 L68.914,24.56 C68.4819978,25.0640025 67.9450032,25.4479987 67.303,25.712 C66.6609968,25.9760013 65.944004,26.108 65.152,26.108 C64.143995,26.108 63.2500039,25.9010021 62.47,25.487 C61.6899961,25.0729979 61.0870021,24.4940037 60.661,23.75 C60.2349979,23.0059963 60.022,22.1660047 60.022,21.23 C60.022,20.3059954 60.2289979,19.4720037 60.643,18.728 C61.0570021,17.9839963 61.6269964,17.4050021 62.353,16.991 C63.0790036,16.5769979 63.8979954,16.37 64.81,16.37 C65.7220046,16.37 66.5349964,16.5769979 67.249,16.991 C67.9630036,17.4050021 68.520998,17.9839963 68.923,18.728 C69.325002,19.4720037 69.526,20.3239952 69.526,21.284 Z M64.81,17.828 C63.9819959,17.828 63.2890028,18.0799975 62.731,18.584 C62.1729972,19.0880025 61.8460005,19.7479959 61.75,20.564 L67.87,20.564 C67.7739995,19.759996 67.4470028,19.1030025 66.889,18.593 C66.3309972,18.0829975 65.6380041,17.828 64.81,17.828 Z M80.92,12.644 L80.92,26 L79.264,26 L79.264,24.488 C78.8799981,25.0160026 78.3940029,25.4179986 77.806,25.694 C77.2179971,25.9700014 76.5700035,26.108 75.862,26.108 C74.9379954,26.108 74.1100037,25.904002 73.378,25.496 C72.6459963,25.087998 72.0730021,24.5150037 71.659,23.777 C71.2449979,23.0389963 71.038,22.1900048 71.038,21.23 C71.038,20.2699952 71.2449979,19.4240037 71.659,18.692 C72.0730021,17.9599963 72.6459963,17.390002 73.378,16.982 C74.1100037,16.573998 74.9379954,16.37 75.862,16.37 C76.5460034,16.37 77.1759971,16.4989987 77.752,16.757 C78.3280029,17.0150013 78.8079981,17.3959975 79.192,17.9 L79.192,12.644 L80.92,12.644 Z M76.006,24.596 C76.606003,24.596 77.1519975,24.4550014 77.644,24.173 C78.1360025,23.8909986 78.5199986,23.4950025 78.796,22.985 C79.0720014,22.4749975 79.21,21.8900033 79.21,21.23 C79.21,20.5699967 79.0720014,19.9850025 78.796,19.475 C78.5199986,18.9649974 78.1360025,18.5720014 77.644,18.296 C77.1519975,18.0199986 76.606003,17.882 76.006,17.882 C75.3939969,17.882 74.8450024,18.0199986 74.359,18.296 C73.8729976,18.5720014 73.4890014,18.9649974 73.207,19.475 C72.9249986,19.9850025 72.784,20.5699967 72.784,21.23 C72.784,21.8900033 72.9249986,22.4749975 73.207,22.985 C73.4890014,23.4950025 73.8729976,23.8909986 74.359,24.173 C74.8450024,24.4550014 75.3939969,24.596 76.006,24.596 Z M94.096,16.37 C95.0200046,16.37 95.8479963,16.573998 96.58,16.982 C97.3120037,17.390002 97.8849979,17.9599963 98.299,18.692 C98.7130021,19.4240037 98.92,20.2699952 98.92,21.23 C98.92,22.1900048 98.7130021,23.0389963 98.299,23.777 C97.8849979,24.5150037 97.3120037,25.087998 96.58,25.496 C95.8479963,25.904002 95.0200046,26.108 94.096,26.108 C93.3879965,26.108 92.7400029,25.9700014 92.152,25.694 C91.5639971,25.4179986 91.0780019,25.0160026 90.694,24.488 L90.694,26 L89.038,26 L89.038,12.644 L90.766,12.644 L90.766,17.9 C91.1500019,17.3959975 91.6299971,17.0150013 92.206,16.757 C92.7820029,16.4989987 93.4119966,16.37 94.096,16.37 Z M93.952,24.596 C94.5640031,24.596 95.1129976,24.4550014 95.599,24.173 C96.0850024,23.8909986 96.4689986,23.4950025 96.751,22.985 C97.0330014,22.4749975 97.174,21.8900033 97.174,21.23 C97.174,20.5699967 97.0330014,19.9850025 96.751,19.475 C96.4689986,18.9649974 96.0850024,18.5720014 95.599,18.296 C95.1129976,18.0199986 94.5640031,17.882 93.952,17.882 C93.351997,17.882 92.8060025,18.0199986 92.314,18.296 C91.8219975,18.5720014 91.4380014,18.9649974 91.162,19.475 C90.8859986,19.9850025 90.748,20.5699967 90.748,21.23 C90.748,21.8900033 90.8859986,22.4749975 91.162,22.985 C91.4380014,23.4950025 91.8219975,23.8909986 92.314,24.173 C92.8060025,24.4550014 93.351997,24.596 93.952,24.596 Z M109.756,16.46 L105.13,26.954 C104.721998,27.9260049 104.245003,28.609998 103.699,29.006 C103.152997,29.402002 102.496004,29.6 101.728,29.6 C101.259998,29.6 100.807002,29.5250008 100.369,29.375 C99.9309978,29.2249992 99.5680014,29.0060014 99.28,28.718 L100.018,27.422 C100.510002,27.8900023 101.079997,28.124 101.728,28.124 C102.148002,28.124 102.498999,28.0130011 102.781,27.791 C103.063001,27.5689989 103.317999,27.1880027 103.546,26.648 L103.852,25.982 L99.64,16.46 L101.44,16.46 L104.77,24.092 L108.064,16.46 L109.756,16.46 Z" id="Powered-by" fill="#42505C"></path>
                <g id="logo-copy-2" transform="translate(121.000000, 0.000000)">
                    <g id="type" transform="translate(40.000000, 8.000000)" fill="#42505C">
                        <path d="M5.30496454,19 C4.2127605,19 3.19858624,18.775426 2.26241135,18.3262712 C1.32623645,17.8771164 0.572106879,17.2457668 0,16.4322034 L1.50827423,14.7033898 C2.51379541,16.1101765 3.77934619,16.8135593 5.30496454,16.8135593 C6.32782229,16.8135593 7.10362226,16.5084776 7.63238771,15.8983051 C8.16115316,15.2881325 8.42553191,14.3898364 8.42553191,13.2033898 C8.42553191,8.91203255 8.42553191,5.69351459 8.42553191,3.54783596 C8.42553191,3.47317561 8.42553191,3.36118509 8.42553191,3.21186441 L1.8463357,3.21186441 L1.8463357,1 L11,1 C11,2.13446078 11,2.98530636 11,3.55253674 C11,5.66892218 11,8.84350032 11,13.0762712 C11,15.0423827 10.5189173,16.5211815 9.55673759,17.5127119 C8.59455784,18.5042422 7.17731433,19 5.30496454,19 Z M28,5 L28,18.8432836 L25.6292585,18.8432836 L25.6292585,16.7537313 C25.125582,17.4676653 24.46126,18.0205204 23.6362725,18.4123134 C22.8112851,18.8041064 21.9124965,19 20.9398798,19 C19.0988552,19 17.6486359,18.4906767 16.5891784,17.4720149 C15.5297208,16.4533531 15,14.9515025 15,12.9664179 L15,5 L17.501002,5 L17.501002,12.6791045 C17.501002,14.0199072 17.8223081,15.0342005 18.4649299,15.7220149 C19.1075516,16.4098293 20.0280501,16.7537313 21.2264529,16.7537313 C22.5464328,16.7537313 23.5885065,16.3532378 24.3527054,15.5522388 C25.1169043,14.7512398 25.498998,13.6194103 25.498998,12.1567164 L25.498998,5 L28,5 Z M36.3772321,19 C35.3132387,19 34.2901835,18.8490465 33.3080357,18.5471349 C32.3258879,18.2452234 31.5565504,17.8613702 31,17.3955638 L31.9821429,15.4288355 C32.5550624,15.8601377 33.25074,16.2051743 34.0691964,16.4639556 C34.8876529,16.722737 35.7142815,16.8521257 36.5491071,16.8521257 C38.6116175,16.8521257 39.6428571,16.2310598 39.6428571,14.9889094 C39.6428571,14.5748593 39.5037216,14.2470745 39.2254464,14.0055453 C38.9471712,13.764016 38.5993324,13.5871848 38.1819196,13.4750462 C37.7645068,13.3629076 37.1711348,13.2378319 36.4017857,13.0998152 C35.3541614,12.9272943 34.4988872,12.7288982 33.8359375,12.5046211 C33.1729878,12.2803439 32.604169,11.9008037 32.1294643,11.3659889 C31.6547595,10.8311742 31.4174107,10.0807196 31.4174107,9.11460259 C31.4174107,7.8724522 31.9084772,6.87615902 32.890625,6.12569316 C33.8727728,5.3752273 35.1904679,5 36.84375,5 C37.7113139,5 38.5788647,5.11213689 39.4464286,5.33641405 C40.3139924,5.5606912 41.0260389,5.86259823 41.5825893,6.24214418 L40.5758929,8.20887246 C39.5118994,7.48428473 38.2596798,7.1219963 36.8191964,7.1219963 C35.8206795,7.1219963 35.0595264,7.2945146 34.5357143,7.63955638 C34.0119021,7.98459815 33.75,8.44177165 33.75,9.01109057 C33.75,9.45964488 33.89732,9.81330739 34.1919643,10.0720887 C34.4866086,10.3308701 34.8508163,10.5206402 35.2845982,10.6414048 C35.7183801,10.7621694 36.3281211,10.9001841 37.1138393,11.0554529 C38.1614636,11.2452258 39.0085533,11.4479348 39.6551339,11.663586 C40.3017145,11.8792371 40.8541644,12.2458384 41.3125,12.7634011 C41.7708356,13.2809638 42,14.0055406 42,14.9371534 C42,16.1793038 41.4966568,17.1669711 40.4899554,17.9001848 C39.4832539,18.6333986 38.1123599,19 36.3772321,19 Z M45,0 L47,0 L47,19 L45,19 L45,0 Z" id="Jusl"></path>
                    </g>
                    <g id="icon-copy">
                        <use fill="black" fill-opacity="1" filter="url(#filter-2)" xlink:href="#path-1"></use>
                        <use fill="#42505C" fill-rule="evenodd" xlink:href="#path-1"></use>
                    </g>
                    <circle id="Oval" fill="#FFFFFF" cx="20.5" cy="20.5" r="2.5"></circle>
                </g>
            </g>
        </g>
    </g>
</svg>